<svg width="162" height="33" fill="none" xmlns="http://www.w3.org/2000/svg"><path d="M159.973.837a.5.5 0 00-.636-.31l-4.255 1.464a.5.5 0 00.325.946l3.783-1.302 1.301 3.783a.5.5 0 10.946-.325L159.973.837zM.672 8.377c8.704 7.569 21.721 13.533 36.635 17.574 14.92 4.044 31.779 6.174 48.197 6.049 16.415-.125 32.415-2.506 45.611-7.501 13.191-4.994 23.633-12.623 28.834-23.28l-.898-.438c-5.049 10.343-15.232 17.839-28.291 22.783-13.054 4.942-28.929 7.311-45.264 7.436-16.332.125-33.099-1.995-47.928-6.014-14.836-4.02-27.694-9.932-36.24-17.363l-.656.754z" fill="#fff"/></svg>