<svg width="401" height="211" fill="none" xmlns="http://www.w3.org/2000/svg"><path fill-rule="evenodd" clip-rule="evenodd" d="M160.757 13.807c22.229 11.327 22.132 10.9 8.463 37.255-11.934 23.02-15.184 23.957-33.984 9.776-18.682-14.091-40.29-12.63-61.703 4.171-25.735 20.179-25.735 61.543 0 81.722 37.897 29.727 60.562 17.614 104.032-55.58 21.573-36.324 42.585-62.26 59.601-73.552C306.35-28.301 401.069 22.32 401 105.167c-.048 60.668-44.251 104.038-106.079 104.086-31.798.028-73.664-16.614-73.664-29.279 0-4.543 15.183-31.809 25.638-46.024 1.189-1.621 6.022 2.219 10.731 8.527 15.342 20.524 48.766 21.958 70.829 3.041 26.579-22.799 26.897-56.221.74-78.654-38.561-33.078-64.558-19.242-109.84 58.461-37.579 64.48-66.446 86.362-113.041 85.659C47.446 210.094 0 164.118 0 107.952 0 23.376 83.524-25.544 160.757 13.807z" fill="#393939"/></svg>