<svg width="156" height="41" fill="none" xmlns="http://www.w3.org/2000/svg"><g clip-path="url(#clip0_243_100)" fill="#fff"><path d="M29.992 38.219c-.355 0-.661-.082-.917-.245a1.554 1.554 0 01-.577-.683 2.388 2.388 0 01-.197-.993c0-.37.066-.7.197-.992a1.59 1.59 0 01.582-.688c.256-.168.56-.251.912-.251.349 0 .65.083.902.25.253.164.445.392.576.684.132.291.198.625.198 1.002 0 .374-.066.705-.198.993a1.559 1.559 0 01-.576.678 1.622 1.622 0 01-.902.245zm-.005-.427c.246 0 .459-.062.64-.187a1.21 1.21 0 00.416-.533c.097-.228.145-.487.145-.78 0-.29-.048-.55-.145-.778a1.21 1.21 0 00-.416-.534 1.082 1.082 0 00-.64-.192c-.245 0-.459.066-.64.198a1.21 1.21 0 00-.416.533 1.975 1.975 0 00-.145.774c0 .292.049.551.145.779.096.224.234.4.416.528.181.128.395.192.64.192zm3.993-3.345h.517l2.001 2.998h.022v-2.998h.453v3.735h-.523l-1.995-2.956h-.022v2.956h-.453v-3.735zm7.66 3.319v.416h-2.203v-3.735h.464l-.005 3.319h1.744zm2.264-3.32h.464v3.736h-.464v-3.735zm2.945 0h.518l2 3h.022v-3h.454v3.736h-.523l-1.996-2.956h-.021v2.956h-.454v-3.735zm5.922.417v1.227h1.616v.374h-1.616v1.302h1.835v.416h-2.3v-3.735h2.3v.416h-1.835zm7.057-.416h1.366c.335 0 .626.076.875.23.253.149.447.364.582.645.139.277.208.606.208.987 0 .38-.07.713-.208.998a1.501 1.501 0 01-.582.65 1.69 1.69 0 01-.88.225h-1.36v-3.735zm1.297 3.308c.377 0 .68-.123.907-.368.228-.25.342-.609.342-1.078 0-.47-.114-.827-.342-1.073-.224-.248-.526-.373-.907-.373h-.848v2.892h.848zm5.12-1.062h-.668v1.489h-.458v-3.735h1.27c.302 0 .55.055.741.165.196.11.336.251.422.422.085.17.128.35.128.539 0 .26-.079.492-.235.699-.153.206-.393.337-.72.394l.987 1.516h-.507l-.96-1.489zm-.668-.395h.753c.252 0 .466-.055.64-.165.174-.11.261-.297.261-.56 0-.26-.087-.443-.26-.55a1.205 1.205 0 00-.641-.16h-.752v1.435zm4.504-1.851h.464v3.735h-.464v-3.735zm2.583 0h.47l1.131 3.27h.032l1.131-3.27h.464l-1.29 3.735h-.641l-1.297-3.735zm5.398 0h.464v3.735h-.464v-3.735zm2.945 0h.517l2.001 2.998h.021v-2.998H84v3.735h-.523l-1.995-2.956h-.022v2.956h-.453v-3.735zm6.925 3.772c-.367 0-.67-.093-.913-.278a1.7 1.7 0 01-.538-.72 2.513 2.513 0 01-.171-.923c0-.327.059-.637.176-.928.117-.295.3-.535.55-.72.248-.189.56-.283.933-.283.416 0 .753.114 1.009.341.26.224.439.507.539.849h-.486a1.062 1.062 0 00-.374-.566c-.177-.135-.407-.203-.688-.203-.373 0-.665.135-.875.406-.21.27-.315.64-.315 1.11 0 .476.107.85.32 1.12.218.27.515.406.892.406.224 0 .416-.047.576-.14a.959.959 0 00.373-.389c.09-.163.136-.348.139-.555l.005-.149H88.04v-.347h1.478v1.932h-.369v-.62h-.042a1.21 1.21 0 01-.144.23c-.075.096-.2.192-.374.288-.17.093-.39.139-.656.139zm8.031.005c-.288 0-.535-.058-.741-.176a1.222 1.222 0 01-.614-1.056v-.027h.507v.027a.795.795 0 00.368.688.897.897 0 00.491.123c.235 0 .429-.06.582-.182a.592.592 0 00.229-.49.511.511 0 00-.17-.406.86.86 0 00-.427-.208l-.545-.101c-.626-.14-.939-.468-.939-.987 0-.214.052-.4.155-.56.103-.16.245-.283.427-.369a1.46 1.46 0 01.64-.133c.274 0 .509.055.704.165a1.127 1.127 0 01.593.977v.02h-.507v-.015a.743.743 0 00-.08-.326.69.69 0 00-.257-.293c-.117-.082-.273-.123-.469-.123-.224 0-.404.063-.539.187a.613.613 0 00-.197.464.51.51 0 00.154.384c.104.1.244.167.422.203l.49.096c.687.139 1.03.475 1.03 1.008 0 .218-.055.41-.165.577a1.09 1.09 0 01-.459.395 1.612 1.612 0 01-.683.138zm5.231-.005c-.349 0-.649-.082-.902-.245a1.627 1.627 0 01-.581-.689 2.388 2.388 0 01-.198-.992c0-.37.066-.7.198-.992.135-.292.329-.52.581-.684.253-.167.553-.25.902-.25.42 0 .766.119 1.04.357.274.235.457.553.55.955h-.454a1.215 1.215 0 00-.41-.65 1.1 1.1 0 00-.721-.246c-.387 0-.684.137-.891.41-.206.271-.31.636-.31 1.095 0 .462.104.83.31 1.104.207.27.504.405.891.405.267 0 .496-.07.689-.213.192-.146.329-.34.41-.582h.454c-.1.37-.285.666-.555.886-.267.22-.601.331-1.003.331zm6.674-3.772v3.735h-.464V36.49h-1.899v1.692h-.459v-3.735h.459v1.67h1.899v-1.67h.464zm3.99 3.772c-.356 0-.662-.082-.918-.245a1.546 1.546 0 01-.576-.683 2.382 2.382 0 01-.198-.993c0-.37.066-.7.198-.992a1.58 1.58 0 01.581-.688c.256-.168.56-.251.913-.251.348 0 .649.083.901.25.253.164.445.392.576.684.132.291.198.625.198 1.002 0 .374-.066.705-.198.993a1.551 1.551 0 01-.576.678 1.62 1.62 0 01-.901.245zm-.006-.427a1.1 1.1 0 00.64-.187c.182-.128.321-.305.417-.533a1.99 1.99 0 00.144-.78c0-.29-.048-.55-.144-.778a1.208 1.208 0 00-.417-.534 1.08 1.08 0 00-.64-.192 1.06 1.06 0 00-.64.198c-.181.128-.32.306-.416.533a1.975 1.975 0 00-.144.774c0 .292.048.551.144.779.096.224.235.4.416.528s.395.192.64.192zm5.572.427c-.356 0-.662-.082-.918-.245a1.56 1.56 0 01-.576-.683 2.382 2.382 0 01-.197-.993c0-.37.065-.7.197-.992a1.58 1.58 0 01.582-.688c.256-.168.56-.251.912-.251.349 0 .649.083.902.25.252.164.444.392.576.684.132.291.197.625.197 1.002 0 .374-.065.705-.197.993a1.564 1.564 0 01-.576.678 1.623 1.623 0 01-.902.245zm-.005-.427c.245 0 .458-.062.64-.187.181-.128.32-.305.416-.533a1.99 1.99 0 00.144-.78c0-.29-.048-.55-.144-.778a1.213 1.213 0 00-.416-.534 1.083 1.083 0 00-.64-.192c-.246 0-.459.066-.641.198-.181.128-.32.306-.416.533a1.975 1.975 0 00-.144.774c0 .292.048.551.144.779.096.224.235.4.416.528.182.128.395.192.641.192zm6.196-.026v.416h-2.204v-3.735h.465l-.006 3.319h1.745z"/><path fill-rule="evenodd" clip-rule="evenodd" d="M62.838 10.827c1.784.912 1.776.877.679 2.998-.958 1.853-1.219 1.929-2.727.787-1.5-1.134-3.233-1.016-4.952.336-2.065 1.624-2.065 4.953 0 6.577 3.041 2.393 4.86 1.418 8.349-4.473 1.73-2.923 3.417-5.01 4.782-5.92 5.552-3.694 13.153.38 13.148 7.048-.004 4.883-3.551 8.373-8.513 8.377-2.552.003-5.911-1.337-5.911-2.356 0-.366 1.218-2.56 2.057-3.704.096-.13.483.178.861.686 1.231 1.652 3.914 1.767 5.684.245 2.133-1.835 2.159-4.525.06-6.33-3.095-2.663-5.181-1.55-8.815 4.704-3.016 5.19-5.332 6.951-9.071 6.895-4.724-.072-8.532-3.772-8.532-8.293 0-6.807 6.703-10.744 12.9-7.577z"/><path d="M27.274 27.282c-2.319 0-3.918-.683-4.797-2.05-.855-1.367-1.282-3.272-1.282-5.713v-9.412h3.955v8.423c0 1.392.074 2.478.22 3.26.17.756.488 1.318.952 1.684.488.366 1.209.55 2.16.55.684 0 1.344-.196 1.978-.587a4.527 4.527 0 001.538-1.574 4.225 4.225 0 00.623-2.234v-9.522h3.918v16.81h-3.222l-.44-2.454c-.61.952-1.38 1.66-2.307 2.124-.903.463-2.002.695-3.296.695zM41.251 13.33h-2.41v-3.223h2.41V3.26h3.992v6.848h3.03v3.223h-3.03v13.586H41.25V13.33zm42.53-3.223h3.882l.037 3.076c.464-1.025 1.196-1.867 2.197-2.526 1.001-.66 2.173-.99 3.516-.99 1.733 0 3.064.367 3.991 1.1.928.708 1.55 1.708 1.868 3.002.317 1.294.476 2.979.476 5.054v8.093h-3.955v-7.983c0-2.124-.208-3.65-.623-4.578-.415-.952-1.27-1.428-2.563-1.428-.733 0-1.477.232-2.234.696-.757.44-1.392 1.086-1.904 1.94-.488.855-.733 1.856-.733 3.004v8.35h-3.955v-16.81zM103.161 0h3.918v26.916h-3.918V0zm7.748 10.107h4.101v16.81h-4.101v-16.81zm2.014-3.15c-.757 0-1.391-.255-1.904-.768-.513-.513-.769-1.148-.769-1.904 0-.684.256-1.27.769-1.758s1.147-.733 1.904-.733c.733 0 1.355.245 1.868.733.512.488.769 1.074.769 1.758 0 .756-.257 1.391-.769 1.904-.489.513-1.111.769-1.868.769zm5.549 3.15h3.882l.037 3.076c.464-1.025 1.196-1.867 2.197-2.526 1.001-.66 2.173-.99 3.516-.99 1.733 0 3.063.367 3.991 1.1.928.708 1.55 1.708 1.868 3.002.317 1.294.476 2.979.476 5.054v8.093h-3.955v-7.983c0-2.124-.208-3.65-.623-4.578-.415-.952-1.269-1.428-2.563-1.428-.733 0-1.477.232-2.234.696-.757.44-1.392 1.086-1.904 1.94-.489.855-.733 1.856-.733 3.004v8.35h-3.955v-16.81zm-104.097.001v1.835a8.578 8.578 0 012.826 6.373 8.578 8.578 0 01-2.79 6.34v2.26h3.736V10.108h-3.772z"/><path fill-rule="evenodd" clip-rule="evenodd" d="M14.412 24.656a8.578 8.578 0 002.789-6.34 8.578 8.578 0 00-3.13-6.636 8.6 8.6 0 10.341 12.976zM8.6 23.032a4.716 4.716 0 100-9.432 4.716 4.716 0 000 9.432z"/><path d="M146.205 27.471a9.155 9.155 0 118.949-7.213h-4.047a5.286 5.286 0 00.185-3.33 5.274 5.274 0 00-10.174 0 5.286 5.286 0 00.185 3.33 5.273 5.273 0 008.746 1.664h4.573a9.157 9.157 0 01-8.417 5.549z"/><path d="M151.107 20.258a5.286 5.286 0 00.185-3.33h-10.174a5.286 5.286 0 00.185 3.33h9.804z"/></g><defs><clipPath id="clip0_243_100"><path fill="#fff" d="M0 0h155.36v40.19H0z"/></clipPath></defs></svg>