<svg width="29" height="29" fill="none" xmlns="http://www.w3.org/2000/svg"><path fill-rule="evenodd" clip-rule="evenodd" d="M21.616.052c3.62.556 6.231 3.148 6.81 6.763l.052.32.008 6.911c.009 7.29.01 7.209-.101 7.863-.587 3.465-3.34 6.082-6.888 6.546-.35.046-14.161.046-14.51 0-3.697-.484-6.478-3.26-6.951-6.94-.048-.369-.048-14.165 0-14.534C.523 3.196 3.48.348 7.27.014c.4-.034 14.106.002 14.346.038zm1.727 3.177c-1.17.306-1.564 1.771-.707 2.624.864.86 2.325.462 2.626-.715.295-1.152-.77-2.21-1.919-1.91zm-9.636 3.127c-5.611.36-9.086 6.471-6.519 11.467 2.849 5.543 10.636 5.81 13.844.476 3.266-5.432-.977-12.35-7.325-11.943zm1.169 3.179c3.514.455 5.308 4.572 3.249 7.456-2.102 2.945-6.59 2.58-8.159-.665-1.65-3.41 1.148-7.279 4.91-6.791z" fill="#fff"/></svg>